<svg xmlns="http://www.w3.org/2000/svg" xmlns:xlink="http://www.w3.org/1999/xlink" viewBox="0 0 1920 1080"><defs><style>.a{fill:#2e3192;}.b,.d,.f,.h,.i,.j,.s{fill:#fff;}.b{stroke:#39bd82;}.b,.d,.f,.h,.i,.j{stroke-miterlimit:10;}.b,.d,.f{stroke-width:3px;}.c{fill:#39bd82;}.d{stroke:#44479e;}.e{fill:#44479e;}.f{stroke:#fbb850;}.g{fill:#fbb850;}.h{stroke:#000;}.h,.i,.j{stroke-width:8px;}.i{stroke:#ccc;}.j{stroke:#2e3192;}.k{fill:#b3b3b3;}.l{fill:red;}.m{fill:#ea0437;}.m,.p,.q{fill-rule:evenodd;}.n{fill:url(#a);}.o{fill:url(#b);}.p{fill:#ffd100;}.q{fill:#9950b2;}.r{fill:url(#c);}.t{fill:#22b573;}.u{fill:#fbb03b;}</style><linearGradient id="a" x1="427.91" y1="1238.14" x2="431.88" y2="1238.14" gradientTransform="matrix(2.83, 0, 0, -2.83, 539.06, 4383.78)" gradientUnits="userSpaceOnUse"><stop offset="0" stop-color="#fff"/><stop offset="1" stop-color="#fff"/></linearGradient><linearGradient id="b" x1="357.36" y1="1259.31" x2="361.33" y2="1259.31" xlink:href="#a"/><linearGradient id="c" x1="356.59" y1="1234.61" x2="363.75" y2="1234.61" xlink:href="#a"/></defs><rect class="a" width="1920" height="280"/><rect class="b" x="161.5" y="534" width="120.08" height="12"/><rect class="c" x="221.54" y="534" width="60.04" height="12"/><rect class="b" x="284.58" y="534" width="120.08" height="12"/><rect class="c" x="344.62" y="534" width="60.04" height="12"/><rect class="b" x="407.65" y="534" width="120.08" height="12"/><rect class="c" x="467.69" y="534" width="60.04" height="12"/><rect class="b" x="530.73" y="534" width="120.08" height="12"/><rect class="c" x="590.77" y="534" width="60.04" height="12"/><rect class="b" x="653.81" y="534" width="120.08" height="12"/><rect class="c" x="713.85" y="534" width="60.04" height="12"/><rect class="b" x="776.89" y="534" width="120.08" height="12"/><rect class="c" x="836.92" y="534" width="60.04" height="12"/><rect class="b" x="899.96" y="534" width="120.08" height="12"/><rect class="c" x="960" y="534" width="60.04" height="12"/><rect class="b" x="1023.04" y="534" width="120.08" height="12"/><rect class="c" x="1083.08" y="534" width="60.04" height="12"/><rect class="b" x="1146.12" y="534" width="120.08" height="12"/><rect class="c" x="1206.15" y="534" width="60.04" height="12"/><rect class="b" x="1269.19" y="534" width="120.08" height="12"/><rect class="c" x="1329.23" y="534" width="60.04" height="12"/><rect class="b" x="1392.27" y="534" width="120.08" height="12"/><rect class="c" x="1452.31" y="534" width="60.04" height="12"/><rect class="b" x="1515.35" y="534" width="120.08" height="12"/><rect class="c" x="1575.38" y="534" width="60.04" height="12"/><rect class="b" x="1638.42" y="534" width="120.07" height="12"/><rect class="c" x="1698.46" y="534" width="60.04" height="12"/><rect class="d" x="161.5" y="509" width="120.08" height="12"/><rect class="e" x="221.54" y="509" width="60.04" height="12"/><rect class="d" x="284.58" y="509" width="120.08" height="12"/><rect class="e" x="344.62" y="509" width="60.04" height="12"/><rect class="d" x="407.65" y="509" width="120.08" height="12"/><rect class="e" x="467.69" y="509" width="60.04" height="12"/><rect class="d" x="530.73" y="509" width="120.08" height="12"/><rect class="e" x="590.77" y="509" width="60.04" height="12"/><rect class="d" x="653.81" y="509" width="120.08" height="12"/><rect class="e" x="713.85" y="509" width="60.04" height="12"/><rect class="d" x="776.89" y="509" width="120.08" height="12"/><rect class="e" x="836.92" y="509" width="60.04" height="12"/><rect class="d" x="899.96" y="509" width="120.08" height="12"/><rect class="e" x="960" y="509" width="60.04" height="12"/><rect class="d" x="1023.04" y="509" width="120.08" height="12"/><rect class="e" x="1083.08" y="509" width="60.04" height="12"/><rect class="d" x="1146.12" y="509" width="120.08" height="12"/><rect class="e" x="1206.15" y="509" width="60.04" height="12"/><rect class="d" x="1269.19" y="509" width="120.08" height="12"/><rect class="e" x="1329.23" y="509" width="60.04" height="12"/><rect class="d" x="1392.27" y="509" width="120.08" height="12"/><rect class="e" x="1452.31" y="509" width="60.04" height="12"/><rect class="d" x="1515.35" y="509" width="120.08" height="12"/><rect class="e" x="1575.38" y="509" width="60.04" height="12"/><rect class="d" x="1638.42" y="509" width="120.07" height="12"/><rect class="e" x="1698.46" y="509" width="60.04" height="12"/><rect class="f" x="161.5" y="559" width="120.08" height="12"/><rect class="g" x="221.54" y="559" width="60.04" height="12"/><rect class="f" x="284.58" y="559" width="120.08" height="12"/><rect class="g" x="344.62" y="559" width="60.04" height="12"/><rect class="f" x="407.65" y="559" width="120.08" height="12"/><rect class="g" x="467.69" y="559" width="60.04" height="12"/><rect class="f" x="530.73" y="559" width="120.08" height="12"/><rect class="g" x="590.77" y="559" width="60.04" height="12"/><rect class="f" x="653.81" y="559" width="120.08" height="12"/><rect class="g" x="713.85" y="559" width="60.04" height="12"/><rect class="f" x="776.89" y="559" width="120.08" height="12"/><rect class="g" x="836.92" y="559" width="60.04" height="12"/><rect class="f" x="899.96" y="559" width="120.08" height="12"/><rect class="g" x="960" y="559" width="60.04" height="12"/><rect class="f" x="1023.04" y="559" width="120.08" height="12"/><rect class="g" x="1083.08" y="559" width="60.04" height="12"/><rect class="f" x="1146.12" y="559" width="120.08" height="12"/><rect class="g" x="1206.15" y="559" width="60.04" height="12"/><rect class="f" x="1269.19" y="559" width="120.08" height="12"/><rect class="g" x="1329.23" y="559" width="60.04" height="12"/><rect class="f" x="1392.27" y="559" width="120.08" height="12"/><rect class="g" x="1452.31" y="559" width="60.04" height="12"/><rect class="f" x="1515.35" y="559" width="120.08" height="12"/><rect class="g" x="1575.38" y="559" width="60.04" height="12"/><rect class="f" x="1638.42" y="559" width="120.07" height="12"/><rect class="g" x="1698.46" y="559" width="60.04" height="12"/><rect class="h" x="147.5" y="500" width="25" height="80" rx="12.5"/><rect class="h" x="547.5" y="505" width="25" height="45" rx="12.5"/><rect class="h" x="947.5" y="505" width="25" height="45" rx="12.5"/><rect class="h" x="1147.5" y="505" width="25" height="45" rx="12.5"/><rect class="h" x="1747.5" y="500" width="25" height="80" rx="12.5"/><rect class="i" x="1547.5" y="500" width="25" height="80" rx="12.5"/><circle class="j" cx="360" cy="515" r="12.5"/><circle class="j" cx="760" cy="515" r="12.5"/><circle class="j" cx="1360" cy="515" r="12.5"/><path d="M154.75,708.79a12.79,12.79,0,0,0-2.63,2.06h5.82V700h-6.38q-2.62,0-7.31.18V696.6q4.68.2,7.13.19h6.56V691q-6.19,0-9.75.18v-3a67.92,67.92,0,0,1-7.31,4.69,17.31,17.31,0,0,0-2.82-3.19,32.29,32.29,0,0,0,7.32-3.93,46.82,46.82,0,0,0,7.31-6.47,37.56,37.56,0,0,0,5.81-8.16,26,26,0,0,0,3.94,2.06l-1.13,1.13c1.38,1.5,3.06,3.19,5.07,5.06a31.7,31.7,0,0,0,7.12,5,46.38,46.38,0,0,0,8.62,3.47,12,12,0,0,0-2.43,3.56A57.37,57.37,0,0,1,172,688v3.18q-3.75-.18-6-.18h-4.5v5.81h6.56c2.13,0,4.75-.06,7.88-.19v3.56q-4.5-.18-7.88-.18H161.5v10.87h3.56q4.32-7.5,4.69-10.12a30.72,30.72,0,0,0,4.13,2.25q-1.32,1.68-5.07,7.87,5.82,0,11.25-.19v3.57q-5.43-.19-8.81-.19H148.94q-3.94,0-7.69.19v-3.57q3.94.2,7.69.19h2.25a40.7,40.7,0,0,0-4.69-7.5,32.53,32.53,0,0,0,3-2.25Q152.5,705.23,154.75,708.79Zm-.75-21h11.25c1.87-.12,3.87-.19,6-.19a59.58,59.58,0,0,1-6.47-5.34,53.33,53.33,0,0,1-5.34-5.72,50.78,50.78,0,0,1-5,5.72q-2.91,2.91-5.72,5.34C150.62,687.73,152.37,687.79,154,687.79Z"/><path d="M145,747.64v17.25h13.12V736.76q0-3.37-.18-6.75h4.12q-.18,2.63-.18,6.75v28.13H175V747.26q0-4.12-.19-6.93h4.31q-.18,2.25-.18,6.93v15.19q0,4.5.18,9.56H175v-3.93H140.88q.18-4.12.18-8.07V747.83q0-4.32-.18-7.69h4.31Q145,744.64,145,747.64Z"/><path d="M176.69,790.43q-.19,2.63-.19,6.93l-.38,12.75q-.37,5.25-3.09,5.91a36.36,36.36,0,0,1-6.84.84,10.67,10.67,0,0,0-1.5-4.31q5.25.19,6.28-.19c.68-.25,1.09-1.37,1.22-3.37l.19-15H158.5v30.56H175q3.75,0,6.56-.19v4.13q-2.81-.19-6.56-.19H144.62a50.06,50.06,0,0,0-6.74.38v-4.32q2.81.2,6.74.19h9.94V794h-4.87c-3.13,0-5.81.06-8.07.19v-3.94c2.26.12,4.94.19,8.07.19Z"/><path d="M354.75,708.79a12.79,12.79,0,0,0-2.63,2.06h5.82V700h-6.38q-2.62,0-7.31.18V696.6q4.68.2,7.13.19h6.56V691q-6.19,0-9.75.18v-3a67.92,67.92,0,0,1-7.31,4.69,17.31,17.31,0,0,0-2.82-3.19,32.29,32.29,0,0,0,7.32-3.93,46.82,46.82,0,0,0,7.31-6.47,37.56,37.56,0,0,0,5.81-8.16,26,26,0,0,0,3.94,2.06l-1.13,1.13c1.38,1.5,3.06,3.19,5.07,5.06a31.7,31.7,0,0,0,7.12,5,46.38,46.38,0,0,0,8.62,3.47,12,12,0,0,0-2.43,3.56A57.37,57.37,0,0,1,372,688v3.18q-3.75-.18-6-.18h-4.5v5.81h6.56c2.13,0,4.75-.06,7.88-.19v3.56q-4.5-.18-7.88-.18H361.5v10.87h3.56q4.32-7.5,4.69-10.12a30.72,30.72,0,0,0,4.13,2.25q-1.32,1.68-5.07,7.87,5.82,0,11.25-.19v3.57q-5.43-.19-8.81-.19H348.94q-3.94,0-7.69.19v-3.57q3.94.2,7.69.19h2.25a40.7,40.7,0,0,0-4.69-7.5,32.53,32.53,0,0,0,3-2.25Q352.5,705.23,354.75,708.79Zm-.75-21h11.25c1.87-.12,3.87-.19,6-.19a59.58,59.58,0,0,1-6.47-5.34,53.33,53.33,0,0,1-5.34-5.72,50.78,50.78,0,0,1-5,5.72q-2.91,2.91-5.72,5.34C350.62,687.73,352.37,687.79,354,687.79Z"/><path d="M345,747.64v17.25h13.12V736.76q0-3.37-.18-6.75h4.12q-.18,2.63-.18,6.75v28.13H375V747.26q0-4.12-.19-6.93h4.31q-.18,2.25-.18,6.93v15.19q0,4.5.18,9.56H375v-3.93H340.88q.18-4.12.18-8.07V747.83q0-4.32-.18-7.69h4.31Q345,744.64,345,747.64Z"/><path d="M379.12,798.68V821c0,2.5.07,5.5.19,9h-3.75v-3H344.25v3.19H340.5c.12-3.26.19-6.82.19-10.69V798.68c0-3.5-.07-7-.19-10.5h38.81C379.19,791.55,379.12,795.05,379.12,798.68Zm-3.56,25.12V791.18H344.25V823.8Zm-23.44-9.37a19.15,19.15,0,0,0,2.07-8.63c-2.75,0-5.19.07-7.31.19v-3.38q3.18.2,6.93.19h11.63c2.12,0,4.5-.06,7.12-.19V806c-2.62-.12-5.06-.19-7.31-.19v8.81c-.13,1.76.16,2.69.84,2.82a8.27,8.27,0,0,0,2.44,0c.94-.13,1.53-1.32,1.78-3.57a9.9,9.9,0,0,0,3.75,1.69c-1.12,3.5-2.75,5.25-4.87,5.25h-4.13q-3.18,0-3.18-3.56V805.8h-4.13a33.36,33.36,0,0,1-1.59,8.53,20.89,20.89,0,0,1-2.16,4.13,23.14,23.14,0,0,1-3.75,3.84,13.34,13.34,0,0,0-3.19-2.62A13.6,13.6,0,0,0,352.12,814.43Zm10.32-19.32q3.75,0,7.68-.18v3.56c-2.5-.12-5-.19-7.5-.19h-6.93c-1.75,0-3.57.07-5.44.19v-3.56c1.87.12,3.69.18,5.44.18Z"/><path d="M379.88,849.34q-2.82-.2-7.5-.19H344.62v34.69h30.57c2.5,0,4.5-.07,6-.19V887c-1.63-.13-3.75-.19-6.38-.19H340.69c.12-3,.19-5.19.19-6.56v-28.5c0-2.13-.07-4.07-.19-5.82h39.19ZM364.5,863a38,38,0,0,0,6.38-10.13,42.87,42.87,0,0,0,4.87,2.63,12,12,0,0,0-3.56,3.56q-1.5,2.25-4.5,6.37A66.33,66.33,0,0,1,378,875.78a9.73,9.73,0,0,0-3.19,3.18q-3-4.5-9.93-10.31a73.34,73.34,0,0,1-5.72,5.81q-2.91,2.63-7.22,5.82a16.47,16.47,0,0,0-3.75-2.82,32.16,32.16,0,0,0,6.75-4,48.46,48.46,0,0,0,7.12-7.4,78,78,0,0,0-11.62-8.63,8.66,8.66,0,0,0,2.62-3.19A116.73,116.73,0,0,1,364.5,863Z"/><path d="M580.44,697q0,1.5.18,3.75h-3.74v-3.94H542.94v4.31H539a33.42,33.42,0,0,0,.19-3.56,35.27,35.27,0,0,0-.19-3.75h41.62A30.1,30.1,0,0,0,580.44,697ZM562.25,675.6h9c3,0,5.63-.06,7.87-.19v3.38c-2.12-.12-4.75-.19-7.87-.19H547.44c-2.38,0-4.57.07-6.56.19v-3.38q2.8.2,6.56.19h10.68a13,13,0,0,0-1.5-3.56,40.27,40.27,0,0,0,3.94-1.13C561.06,672.16,561.62,673.73,562.25,675.6Zm5.25,24.56q4.13,0,7.31-.18v3.37c-2-.12-4.37-.19-7.12-.19h-5.81v7.5a3.51,3.51,0,0,1-2.16,3.38,29.47,29.47,0,0,1-6.1,1.31,11.43,11.43,0,0,0-1.5-3.94c2.88,0,4.6-.16,5.16-.47a1.5,1.5,0,0,0,.84-1.4v-6.38h-5.06c-2.5,0-4.94.07-7.31.19V700q3.56.18,7.31.18Zm4.5-13.87c0,1.62.06,3.25.19,4.87H546.88c.12-1.62.18-3.25.18-4.87s-.06-3.12-.18-4.5h25.31C572.06,683.17,572,684.67,572,686.29Zm-3.56,1.87V684.6H550.62v3.56Z"/><path d="M545.38,734.7c0-1.87-.07-3.69-.19-5.44h4.31c-.13,1.5-.19,3.32-.19,5.44v4.69q2.82,0,6.19-.19v3.38q-3.37-.2-6.19-.19v6.37a17.78,17.78,0,0,1,3-1.68c.75,1.12,2,3.25,3.75,6.37-1,.5-2.19,1.19-3.56,2.06a43,43,0,0,0-3.19-6.18V764c0,2.63.06,5.25.19,7.88h-4.31c.12-2.76.19-5.38.19-7.88V751.2a51.51,51.51,0,0,1-4.88,10.31c-.38-.62-1.25-2-2.62-4.12a35.1,35.1,0,0,0,3.65-5.53,45.78,45.78,0,0,0,3.47-9.47q-3.19,0-6.19.19V739.2q3.75.19,6.57.19Zm12.56,4.5c1.37.13,2.81.19,4.31.19h3.37v-5.63a26.28,26.28,0,0,0-.37-4.68h4.31a39.84,39.84,0,0,0-.18,4.87v5.44H575a38.39,38.39,0,0,0,5.44-.38v3.57c-1.63-.13-3.32-.19-5.06-.19h-5.44a31.61,31.61,0,0,0,3,7.12,34.46,34.46,0,0,0,3.47,4.88,17.51,17.51,0,0,0,3.47,3.19c1.12.75,2,1.31,2.62,1.68-.63.75-1.19,1.41-1.69,2a17.74,17.74,0,0,0-1.5,2,39.41,39.41,0,0,1-7.12-8.25,21.39,21.39,0,0,1-2.81-5.81v16.5c0,1.87.06,3.94.18,6.19h-4.12q.18-4.14.18-6.19v-16.5a82.8,82.8,0,0,1-4.87,9.94,28.81,28.81,0,0,1-3.94,5.43c-1.12-.87-2.37-1.75-3.75-2.62a31.09,31.09,0,0,0,4.41-5.06,62.81,62.81,0,0,0,3.65-5.91,57.23,57.23,0,0,0,3.57-8.53h-2.25c-1.5,0-3,.06-4.5.19Z"/><path d="M753.44,683.48v15.93q0,3.95.18,7.32h-3.93v-4.88h-7.13v7.5h-3.94q.2-3.75.19-7.31V683.48c0-1.75-.06-4.32-.19-7.69h15C753.5,678.41,753.44,681,753.44,683.48Zm-3.75,15V679.16h-7.13v19.32Zm17.43-12V677.1a51.28,51.28,0,0,0-.18-5.25h4.5a24.75,24.75,0,0,0-.38,5.25v9.38h6.75a31.91,31.91,0,0,0,4.5-.19V690a32.53,32.53,0,0,0-4.31-.19h-6.94v18.56q0,4.13.19,6.19h-4.31c.12-1.38.18-3.37.18-6V689.85h-6.56a44.5,44.5,0,0,0-5.06.19v-3.75a42.16,42.16,0,0,0,4.88.19Z"/><path d="M743.31,734.7c0-2.12-.06-3.94-.19-5.44h3.76a16.11,16.11,0,0,0-.38,5.07v4.31c1.25,0,2.81-.06,4.69-.19v2.81c-2.13-.12-3.69-.18-4.69-.18v6.56c.75-.38,1.69-.81,2.81-1.31,1.38,3,2.31,5.12,2.81,6.37a8.45,8.45,0,0,0-3,1.5,57.52,57.52,0,0,0-2.62-6v16.69c0,2.62.06,5,.19,7.12h-3.57c.13-2.12.19-4.5.19-7.12V752.51c-1,2.75-1.87,5.07-2.62,6.94a9.59,9.59,0,0,0-3.19-2.25c.75-1.25,1.34-2.28,1.78-3.09a24.06,24.06,0,0,0,1.41-3.38,45.34,45.34,0,0,0,1.31-4.59c.38-1.63.69-3.31.94-5.06-1.38,0-3.19.06-5.44.18v-2.81c2,.13,3.94.19,5.81.19Zm17.07-.56h6.74c-.12,1.87-.18,4.25-.18,7.12v26.63a3.65,3.65,0,0,1-1.32,3.19,12.08,12.08,0,0,1-4.68,1.5,7.1,7.1,0,0,0-1.32-3.75q4.32,0,3.94-2.25v-8.25a20.6,20.6,0,0,1-4.87,5.71,82.64,82.64,0,0,1-7.5,5.72,8.11,8.11,0,0,0-3-3.18,22.31,22.31,0,0,0,6.65-3.47,29.33,29.33,0,0,0,5.72-5.35h-4.31c-2.13,0-4.13.07-6,.19v-2.81a28.87,28.87,0,0,0,3,.19V740c0-1.87-.06-3.81-.19-5.81h4.13a32.63,32.63,0,0,0,.56-5.44c1.25.25,2.63.5,4.13.75A38,38,0,0,0,760.38,734.14Zm3.18,7.31v-4.87h-6.94v4.87Zm0,6.94v-4.5h-6.94v4.5Zm0,6.94v-4.5h-6.94v4.5ZM775,734.89c0-2.25-.06-4.13-.19-5.63h3.57c-.13,1.5-.19,3.38-.19,5.63v4.69c1,0,2.43-.07,4.31-.19v2.81c-1.88-.12-3.31-.19-4.31-.19V767c0,2.37-.54,3.78-1.6,4.22a17.65,17.65,0,0,1-4,1,22.68,22.68,0,0,0-1.87-3.37,14,14,0,0,0,3.56-.57q.93-.37.75-2.25V742c-2.62,0-5,.07-7.12.19v-2.81c2.12.12,4.5.19,7.12.19Zm-2.53,16.78c.44,1.44.84,2.84,1.22,4.22a15.79,15.79,0,0,0-3.38.75c-.25-1.5-.56-2.94-.93-4.31s-.76-2.69-1.13-3.94c1.13-.25,2.12-.5,3-.75C771.62,748.89,772,750.23,772.47,751.67Z"/><path d="M606.28,902.12c-.47,2.2-.94,4.34-1.4,6.4,1.77-.38,3-.66,3.79-.85a9.12,9.12,0,0,0,.28,2.25q-4.35,1-7.52,1.76a54.07,54.07,0,0,0-5.84,1.76,10.53,10.53,0,0,0-1.26-3.1,73.55,73.55,0,0,0,8-1.4c.38-1.22.82-3,1.34-5.42a53.63,53.63,0,0,0,1.05-7.66,17.85,17.85,0,0,0,3.1.84A34.6,34.6,0,0,0,606.28,902.12Zm-3.09-11q2,0,5.9-.14v2.67q-3.93-.14-5.9-.14h-2.81c-1.51,0-3.43,0-5.77.14v-2.67c2.34.09,4.26.14,5.77.14Zm-2,14.76c-.94.28-1.83.52-2.67.71a63.42,63.42,0,0,0-2.67-9.43q1.11-.42,2.67-.84Q600.8,903.6,601.22,905.84Zm-2.39-21.09a16.36,16.36,0,0,0,2.39-1.13,23.5,23.5,0,0,1,2.53,5.49,14.15,14.15,0,0,1-2.67,1A20.9,20.9,0,0,0,598.83,884.75Zm18.7,6h4.08c1.5,0,3.14,0,4.92-.14v2.67c-1.78-.09-3.42-.14-4.92-.14h-4.08v6.89h7c-.09,1.4-.14,2.72-.14,3.94v6.89c0,1.68.05,3.42.14,5.2h-2.95v-3h-9.42v3.09h-2.67c0-1.69,0-3.19.14-4.5V904.3c-.1-1.22-.14-2.63-.14-4.22h5.34v-12.8c0-.84-.05-2.11-.14-3.8h2.95c-.09,1.79-.14,3-.14,3.52Zm4.08,20.11v-8.58h-9.42v8.58Z"/><path d="M642.28,902.12c-.47,2.2-.94,4.34-1.4,6.4,1.77-.38,3-.66,3.79-.85a9.12,9.12,0,0,0,.28,2.25q-4.35,1-7.52,1.76a54.07,54.07,0,0,0-5.84,1.76,10.53,10.53,0,0,0-1.26-3.1,73.55,73.55,0,0,0,8-1.4c.38-1.22.82-3,1.34-5.42a53.63,53.63,0,0,0,1.05-7.66,17.85,17.85,0,0,0,3.1.84A34.6,34.6,0,0,0,642.28,902.12Zm-3.09-11q2,0,5.9-.14v2.67q-3.93-.14-5.9-.14h-2.81c-1.51,0-3.43,0-5.77.14v-2.67c2.34.09,4.26.14,5.77.14Zm-2,14.76c-.94.28-1.83.52-2.67.71a63.42,63.42,0,0,0-2.67-9.43q1.11-.42,2.67-.84Q636.8,903.6,637.22,905.84Zm-2.39-21.09a16.36,16.36,0,0,0,2.39-1.13,23.5,23.5,0,0,1,2.53,5.49,14.15,14.15,0,0,1-2.67,1A20.9,20.9,0,0,0,634.83,884.75Zm18.7,6h4.08c1.5,0,3.14,0,4.92-.14v2.67c-1.78-.09-3.42-.14-4.92-.14h-4.08v6.89h7c-.09,1.4-.14,2.72-.14,3.94v6.89c0,1.68.05,3.42.14,5.2h-2.95v-3h-9.42v3.09h-2.67c0-1.69,0-3.19.14-4.5V904.3c-.1-1.22-.14-2.63-.14-4.22h5.34v-12.8c0-.84-.05-2.11-.14-3.8h2.95c-.09,1.79-.14,3-.14,3.52Zm4.08,20.11v-8.58h-9.42v8.58Z"/><path d="M673.08,890v19.69c0,2.06,0,4.12.14,6.19h-2.67q.13-3,.14-6.05V894.59q-1,2-2.81,5.35a14.75,14.75,0,0,0-2.26-2.11,49.19,49.19,0,0,0,3.59-6.19,26.74,26.74,0,0,0,2.88-8.3l3.24,1C674.67,884.89,673.92,886.77,673.08,890Zm25.66,12.17c0,.89.07,1.61.07,2.18h-2.39v-2.53H677.58v2.53h-2.53a22.74,22.74,0,0,0,.14-2.39,16.52,16.52,0,0,0-.14-2.25h23.76A14,14,0,0,0,698.74,902.12ZM689,886.58h4.08c2.15,0,3.89-.05,5.2-.14v2.39c-1.5-.09-3.23-.14-5.2-.14H681c-1.5,0-3,0-4.5.14v-2.39c1.41.09,2.91.14,4.5.14h4.93a15.66,15.66,0,0,0-1-2.67,19.93,19.93,0,0,0,3-.85C688.22,884.1,688.59,885.27,689,886.58Zm5.76,8.15a24.75,24.75,0,0,0,.15,3.1H678.7c.1-1,.14-2.16.14-3.38s0-2.39-.14-3.51h16.18C694.78,892.06,694.73,893.33,694.73,894.73Zm-3.37,9.85a27.58,27.58,0,0,0,3.94-.28v2.53c-1.32-.09-2.58-.14-3.8-.14h-2.81v6.47c-.1,1.4-.61,2.25-1.55,2.53a23.6,23.6,0,0,1-3.8.7,7.08,7.08,0,0,0-1.12-3.23,17.32,17.32,0,0,0,3.16,0c.52-.1.78-.47.78-1.13v-5.34h-3.24c-1.4,0-2.76,0-4.08.14V904.3a29.6,29.6,0,0,0,4.22.28Zm1-8.86v-2.67H681.23v2.67Z"/><path d="M608.81,943.75c.09-3.28.12-5.48.07-6.61s-.12-2.2-.21-3.23a37.35,37.35,0,0,0,3.8.42,20.91,20.91,0,0,0-.63,4.08c-.14,1.78-.22,3.56-.22,5.34h7.18q3.8,0,7-.28v3.09c-1.88-.09-3.8-.14-5.77-.14h-8.29a18.16,18.16,0,0,0,2,4.85,35.45,35.45,0,0,0,2.89,4.36,25.11,25.11,0,0,0,4.08,4,26.14,26.14,0,0,0,5.69,3.52,9,9,0,0,0-2.25,2.81,30.16,30.16,0,0,1-5-3.52,30.68,30.68,0,0,1-4.92-5.55,34.21,34.21,0,0,1-3.73-6.4,27.88,27.88,0,0,1-2.39,5.13,28.71,28.71,0,0,1-2.74,3.73,23.12,23.12,0,0,1-3.8,3.37,57.56,57.56,0,0,1-5.27,3.38,15.53,15.53,0,0,0-2.53-3,26.89,26.89,0,0,0,5.83-2.82,18.57,18.57,0,0,0,4.71-4.14,23.26,23.26,0,0,0,3-4.86,17.28,17.28,0,0,0,1.4-4.92h-7.73c-2.25,0-4,.05-5.35.14v-3.09c1.32.09,3.1.19,5.35.28Z"/><path d="M642.28,952.12c-.47,2.2-.94,4.34-1.4,6.4,1.77-.38,3-.66,3.79-.85a9.12,9.12,0,0,0,.28,2.25q-4.35,1-7.52,1.76a54.07,54.07,0,0,0-5.84,1.76,10.53,10.53,0,0,0-1.26-3.1,73.55,73.55,0,0,0,8-1.4c.38-1.22.82-3,1.34-5.42a53.63,53.63,0,0,0,1.05-7.66,17.85,17.85,0,0,0,3.1.84A34.6,34.6,0,0,0,642.28,952.12Zm-3.09-11q2,0,5.9-.14v2.67q-3.93-.14-5.9-.14h-2.81c-1.51,0-3.43,0-5.77.14v-2.67c2.34.09,4.26.14,5.77.14Zm-2,14.76c-.94.28-1.83.52-2.67.71a63.42,63.42,0,0,0-2.67-9.43q1.11-.42,2.67-.84Q636.8,953.6,637.22,955.84Zm-2.39-21.09a16.36,16.36,0,0,0,2.39-1.13,23.5,23.5,0,0,1,2.53,5.49,14.15,14.15,0,0,1-2.67,1A20.9,20.9,0,0,0,634.83,934.75Zm18.7,6h4.08c1.5,0,3.14,0,4.92-.14v2.67c-1.78-.09-3.42-.14-4.92-.14h-4.08v6.89h7c-.09,1.4-.14,2.72-.14,3.94v6.89c0,1.68.05,3.42.14,5.2h-2.95v-3h-9.42v3.09h-2.67c0-1.69,0-3.19.14-4.5V954.3c-.1-1.22-.14-2.63-.14-4.22h5.34v-12.8c0-.84-.05-2.11-.14-3.8h2.95c-.09,1.79-.14,3-.14,3.52Zm4.08,20.11v-8.58h-9.42v8.58Z"/><path d="M673.08,940v19.69c0,2.06,0,4.12.14,6.19h-2.67q.13-3,.14-6.05V944.59q-1,2-2.81,5.35a14.75,14.75,0,0,0-2.26-2.11,49.19,49.19,0,0,0,3.59-6.19,26.74,26.74,0,0,0,2.88-8.3l3.24,1C674.67,934.89,673.92,936.77,673.08,940Zm25.66,12.17c0,.89.07,1.61.07,2.18h-2.39v-2.53H677.58v2.53h-2.53a22.74,22.74,0,0,0,.14-2.39,16.52,16.52,0,0,0-.14-2.25h23.76A14,14,0,0,0,698.74,952.12ZM689,936.58h4.08c2.15,0,3.89-.05,5.2-.14v2.39c-1.5-.09-3.23-.14-5.2-.14H681c-1.5,0-3,0-4.5.14v-2.39c1.41.09,2.91.14,4.5.14h4.93a15.66,15.66,0,0,0-1-2.67,19.93,19.93,0,0,0,3-.85C688.22,934.1,688.59,935.27,689,936.58Zm5.76,8.15a24.75,24.75,0,0,0,.15,3.1H678.7c.1-1,.14-2.16.14-3.38s0-2.39-.14-3.51h16.18C694.78,942.06,694.73,943.33,694.73,944.73Zm-3.37,9.85a27.58,27.58,0,0,0,3.94-.28v2.53c-1.32-.09-2.58-.14-3.8-.14h-2.81v6.47c-.1,1.4-.61,2.25-1.55,2.53a23.6,23.6,0,0,1-3.8.7,7.08,7.08,0,0,0-1.12-3.23,17.32,17.32,0,0,0,3.16,0c.52-.1.78-.47.78-1.13v-5.34h-3.24c-1.4,0-2.76,0-4.08.14V954.3a29.6,29.6,0,0,0,4.22.28Zm1-8.86v-2.67H681.23v2.67Z"/><path d="M611.62,987.42h8c1.5,0,3.28,0,5.34-.14v2.53c-2-.09-3.75-.14-5.34-.14h-8.3c-.19,1.32-.33,2.44-.42,3.38h10.27c-.1,1.68-.14,3.56-.14,5.62v13.64h1.26c1.31,0,2.81,0,4.5-.14v2.67c-1.59-.09-3.09-.14-4.5-.14H599.39c-1.59,0-3.28,0-5.06.14v-2.67c1.87.1,3.56.14,5.06.14h.84V998.67c0-2.43,0-4.31-.14-5.62h8c.19-1.13.33-2.25.42-3.38h-7.31c-1.78,0-3.57.05-5.34.14v-2.53c1.77.1,3.51.14,5.2.14h7.59a17.72,17.72,0,0,0,0-3.09,31,31,0,0,0,3.8.28A13.41,13.41,0,0,0,611.62,987.42ZM618.38,998V995.3H602.91V998Zm0,4.64v-2.53H602.91v2.53Zm0,4.78v-2.67H602.91v2.67Zm0,4.92v-2.67H602.91v2.67Z"/><path d="M673.92,1000.36v8.16a11.46,11.46,0,0,0,5.2,3.51q3.24,1.13,10,1.13a49.8,49.8,0,0,0,10-.71,9.67,9.67,0,0,0-1,3.52q-5.91.13-9.91,0a49,49,0,0,1-6.68-.63,17.09,17.09,0,0,1-4.15-1.2,15.23,15.23,0,0,1-3.1-2,1.93,1.93,0,0,0-2.95.07c-.89.94-1.85,2.06-2.88,3.38a30.37,30.37,0,0,0-2.39-2.11q2-1.7,5.06-4.5V998.53c-1.31,0-2.81.05-4.5.14V996q3,.13,7.45.14C674,997.92,673.92,999.33,673.92,1000.36ZM675.47,990a25.37,25.37,0,0,0-2.39,2.11,48.77,48.77,0,0,0-4.64-6.18,12.92,12.92,0,0,0,2.25-1.83Q673.36,987.14,675.47,990Zm9.7-6.47c1.59.19,2.72.33,3.38.43a53,53,0,0,0-.57,8.15c4.88,0,8.07,0,9.57-.14v2.81q-2.25-.13-9.71-.14a21.73,21.73,0,0,1-2.6,8.72,25.07,25.07,0,0,1-6.68,7.46,6.6,6.6,0,0,0-2.11-2.25,21.76,21.76,0,0,0,5.84-5.84,18.35,18.35,0,0,0,2.74-8.09c-3.84,0-6.66,0-8.44.14v-2.81c1.78.1,4.69.14,8.72.14Q685.31,985.88,685.17,983.48Zm12.66,24.9a13.69,13.69,0,0,0-2.67,2.1,93,93,0,0,0-7.6-9.42,12.79,12.79,0,0,0,2.11-2Q696,1006,697.83,1008.38Z"/><path d="M942.75,691.54a12.84,12.84,0,0,0,5-4,50.84,50.84,0,0,0,4.22-5.91c-4.63,0-8.38.07-11.25.19V678q3.93.18,13.12.19a41,41,0,0,0,3-7.32,41.58,41.58,0,0,0,4.31,1.88,48.63,48.63,0,0,0-3.37,5.44H970.5c1.5,0,3.81-.07,6.94-.19v3.75c-2.5-.12-4.82-.19-6.94-.19H956.06q-2.05,3.2-7.12,9.75h10.5c0-2.37-.07-4.81-.19-7.31h4.13c-.13,2.13-.19,4.56-.19,7.31h6.37q3.75,0,7.32-.19v3.75q-3.57-.18-7.32-.18h-6.37v7.12h10.5c2.37,0,5-.06,7.87-.19v3.94c-2.87-.12-5.5-.19-7.87-.19h-10.5c0,4,.06,7.19.19,9.57h-4.13c.12-2.51.19-5.69.19-9.57H946.5c-2.75,0-5.38.07-7.88.19v-3.94q3.75.2,7.88.19h12.94v-7.12q-6.75,0-9.38.18a33.44,33.44,0,0,0-5.62.94C943.81,694.1,943.25,692.66,942.75,691.54Z"/><path d="M942.38,735.64c0-1.25-.07-2.81-.19-4.69h3.56c-.13,2-.19,3.56-.19,4.69V742q1.32,0,3.75-.18v3.37c-1.62-.12-2.87-.19-3.75-.19v13.5a39,39,0,0,0,3.56-2.06c.13,1.25.25,2.38.38,3.38-1.38.62-3.09,1.47-5.16,2.53a43.6,43.6,0,0,0-5,2.9c-.51-1.25-1.07-2.5-1.69-3.75,1.12-.37,2.06-.72,2.81-1s1.37-.59,1.88-.84V745c-1,0-2.44.07-4.32.19v-3.37c1.88.12,3.31.18,4.32.18Zm24.93,3c-1.62-.13-2.87-.19-3.75-.19H952.69a38.11,38.11,0,0,0-3.94.19v-3.19a40.26,40.26,0,0,0,4.13.19h10.5c1,0,2.31-.06,3.93-.19Zm-11.06,21.75a10.09,10.09,0,0,0-.37-3,28.32,28.32,0,0,1,3.56-2.25h-4.5a42.37,42.37,0,0,0-4.32.19v-3.19c1.25.12,2.69.19,4.32.19h9.56v2.81a29,29,0,0,0-5.06,3.37V760q1.3-.18,6.18-1.31a30.24,30.24,0,0,0-.18,3.19c-1.38.12-3.38.44-6,.94v4.87c.12,2.37-.56,3.78-2.06,4.22a22.89,22.89,0,0,1-4.88.84,9.77,9.77,0,0,0-1.12-4.31,11.82,11.82,0,0,0,3.93.09c.63-.18.94-.84.94-2V763.2a50,50,0,0,0-6.19,1.5c-.37-1.25-.75-2.37-1.12-3.37Q951.74,761.14,956.25,760.39Zm8.53-15a36.63,36.63,0,0,0,.1,4.5H950.44c.12-1.63.18-3.06.18-4.31s-.06-2.75-.18-4.5h14.62C964.94,742.58,964.84,744,964.78,745.39Zm-3.09,1.87V743.7h-8.07v3.56Zm-.94-13.5-3.56,1.5a22.57,22.57,0,0,0-2.25-4.68c1.12-.63,2.25-1.19,3.37-1.69A29.94,29.94,0,0,1,960.75,733.76Zm6.75,19.32a8.36,8.36,0,0,0-3.19-2.07,30.33,30.33,0,0,0,3.57-7.31,69.16,69.16,0,0,0,1.87-7.41c.5-2.56.87-5,1.13-7.21a22.47,22.47,0,0,0,4.12,1.31,17.16,17.16,0,0,0-1.5,3.65c-.38,1.32-.81,2.79-1.31,4.41h4.31c1.62,0,3.44-.06,5.44-.19v3.38a25.17,25.17,0,0,0-2.82-.19q-.18,4.5-.93,10.41A42.52,42.52,0,0,1,975,763.39a19.37,19.37,0,0,0,3.47,3.65,15.17,15.17,0,0,0,3.84,2.35,10.05,10.05,0,0,0-2.43,3.19,34.06,34.06,0,0,1-4.22-3.47,28.19,28.19,0,0,1-2.72-3.1,32.67,32.67,0,0,1-3.66,3.47,31.75,31.75,0,0,1-5.9,3.66,9.88,9.88,0,0,0-2.07-3,24.27,24.27,0,0,0,5.53-2.91,22.73,22.73,0,0,0,4.41-4,42.36,42.36,0,0,1-2.25-6.75,39,39,0,0,1-.94-4.5A4.57,4.57,0,0,0,967.5,753.08Zm4.12-11.63c-.62,2.38-1.37,4.75-2.24,7.13l1.12-.57a38.69,38.69,0,0,0,.94,6.47,53.3,53.3,0,0,0,1.68,5.91,40,40,0,0,0,2-8.53,79,79,0,0,0,.66-10.41Z"/><path d="M1144.81,705.88c-1,1.31-2.43,3.16-4.31,5.53a16.51,16.51,0,0,0-2.81-2.25,37.34,37.34,0,0,0,6.19-9,23.91,23.91,0,0,0,3.56,2.44C1146.69,703.48,1145.81,704.57,1144.81,705.88Zm10.5-18.28c2.13,0,4.31-.06,6.57-.19v3.75q-3.2-.18-9.57-.18v4.68q5.82,0,9.19-.18v3.75q-3.37-.19-9.19-.19v11.44c0,1.87-.59,3.12-1.78,3.75a9.91,9.91,0,0,1-4.59.93,20.69,20.69,0,0,0-1.88-4.12,17.78,17.78,0,0,0,3.66,0c.68-.13,1-.69,1-1.69V699c-4,0-7.13.06-9.37.19v-3.75q3.55.18,9.37.18V691c-4.63,0-8.06.06-10.31.18v-3.75q3.38.2,6.37.19h7.13q1.5-4.5,2.25-6.94c1,.26,2.37.63,4.12,1.13Q1157,682.54,1155.31,687.6Zm-2.25-11.25c2.88,0,5.56-.06,8.06-.19v3.75c-2.62-.12-4.75-.18-6.37-.18h-9q-3.2,0-6.19.18v-3.75q3.2.2,6.19.19h3.37A31.59,31.59,0,0,0,1148,672c1.25-.38,2.56-.75,3.94-1.13C1152.56,673.54,1152.94,675.35,1153.06,676.35Zm-5.25,9.75a13.9,13.9,0,0,0-3.19,1.13,37.87,37.87,0,0,0-2.06-5.07,18.15,18.15,0,0,1,3-1.31A45.54,45.54,0,0,1,1147.81,686.1Zm12.75,20.81a8.38,8.38,0,0,0-3,2.44,32.53,32.53,0,0,0-3.94-6.56,23.16,23.16,0,0,1,2.82-2.06A67,67,0,0,1,1160.56,706.91Zm7.5-30.18v9.56h9.75c1.38,0,2.81-.06,4.31-.19v3.56q-2.62-.18-4.5-.18v19.31c0,2.12.07,4.37.19,6.75h-3.93q.18-3.57.18-6.56v-19.5h-6q0,4.68-.37,9a43,43,0,0,1-5.25,17.25,26.28,26.28,0,0,0-3.75-1.88,28.19,28.19,0,0,0,4.22-9.09,43.54,43.54,0,0,0,1.4-8.35q.2-3.55.19-10.68c0-4.88-.06-8.75-.19-11.63a55.78,55.78,0,0,0,15.19-2.62,23.11,23.11,0,0,0,2.44,4.12Q1179.12,675.6,1168.06,676.73Z"/><path d="M1148.56,746.7v18.38q0,3.55.19,7.31h-3.56c.12-2.5.19-4.94.19-7.31V749.89a35.53,35.53,0,0,1-4.88,10.69,11.44,11.44,0,0,0-2.62-2.82,43.41,43.41,0,0,0,4.5-8,32.54,32.54,0,0,0,2.06-7.4,33.19,33.19,0,0,0-5.06.37v-3.37c1.74.12,3.74.19,6,.19v-4.69c0-1.88-.07-3.75-.19-5.63h3.75a35.11,35.11,0,0,0-.38,5.63v4.69c1.63,0,3.25-.07,4.88-.19v3.19c-1.63-.13-3.25-.19-4.88-.19v3.19a18.94,18.94,0,0,0,2.06-1.32c1.25,2.25,2.5,4.57,3.76,6.94a8.29,8.29,0,0,0-3,1.5A43.8,43.8,0,0,0,1148.56,746.7Zm19.69-13.12q-.37,2.8-.94,6h6.75c1.5,0,3.31-.07,5.44-.19v3.19q-3.2-.2-7.69-.19a11.64,11.64,0,0,0,3.1,6.09,17.92,17.92,0,0,0,7.59,4.41,7.93,7.93,0,0,0-3,3.37,25,25,0,0,1-5.25-3.75,27.71,27.71,0,0,0-.37,4.88V766q0,2.63.18,6h-3.56c.12-1.5.19-3.5.19-6v-8.62c0-1.88-.07-3.56-.19-5.06h3.56a18.37,18.37,0,0,1-5.44-9.94h-2.06a25,25,0,0,1-4.87,9,34.56,34.56,0,0,0,4.12.37,38.72,38.72,0,0,0-.93,6.28,32.09,32.09,0,0,1-1.6,7.69,16.36,16.36,0,0,1-4.4,6.47,9.78,9.78,0,0,0-4.13-2.25,13.7,13.7,0,0,0,6.09-9.56c.69-4.13.91-7,.66-8.63a39,39,0,0,1-5.81,5.44,9.88,9.88,0,0,0-3.38-2.62,22.89,22.89,0,0,0,7.41-6,26.15,26.15,0,0,0,3.47-6.19q-4.12,0-7.31.19v-3.19c2.24.12,5,.19,8.24.19q.38-3.37.57-5.63-4.87.57-7.5.75a11.7,11.7,0,0,0-1.5-3q1.88,0,8.25-.66a56.21,56.21,0,0,0,11.62-2.34,24.61,24.61,0,0,0,2.06,3.94A50,50,0,0,0,1168.25,733.58Z"/><path d="M1361.88,676.16h9.18c2.38,0,4.81-.06,7.32-.18v3.18c-2.51-.12-4.5-.18-6-.18H1361.5c-.25.87-.56,2.12-.94,3.75h12.38c.87,0,2.12-.07,3.75-.19v3c-2.13-.12-3.57-.19-4.31-.19h-12.57a20.89,20.89,0,0,1-2.06,4.13h15.94c2,0,4.18-.07,6.56-.19v3c-2.38-.12-6.06-.19-11.06-.19a15.28,15.28,0,0,0,5.15,4.41,33.08,33.08,0,0,0,7.6,3.09,8.06,8.06,0,0,0-2.82,3.56,45.4,45.4,0,0,1-6.56-3.37V709q0,2.81.19,6H1369v-2.44h-16.88v2.25h-3.74c.12-2.13.18-4,.18-5.63V698.85a41.57,41.57,0,0,1-7.5,4.5,11.44,11.44,0,0,0-2.81-2.62,36,36,0,0,0,7.31-3.57,30.86,30.86,0,0,0,6.19-5.06h-6.56a51.08,51.08,0,0,0-5.25.38v-3.19c2.25.12,4.12.19,5.62.19H1354a16.43,16.43,0,0,0,2.25-4.13h-6.75c-1,0-2.69.07-5.06.19v-3c2.37.12,4.18.19,5.44.19h7.31a28.54,28.54,0,0,0,.93-3.75H1348c-1.63,0-3.56.06-5.81.18V676q3.93.18,6.75.18h9.56c.12-1.24.25-2.81.38-4.68a18.77,18.77,0,0,0,4.31.93C1362.81,672.79,1362.37,674,1361.88,676.16Zm6.56,20.44a26,26,0,0,1-3.38-4.5h-9a30.42,30.42,0,0,1-4.68,4.5ZM1369,703v-3.75h-16.88V703Zm0,6.75v-3.94h-16.88v3.94Z"/><path d="M1357.75,728.7h3.94q-.2,2.07-.19,7.5H1378c-.13,1.63-.19,3.38-.19,5.25v15.94c0,1.62.06,3.5.19,5.62h-3.94v-2.62H1361.5v6.75c0,1.37.06,3.31.19,5.81h-3.94c.12-2.5.19-4.44.19-5.81v-6.75h-12.19v3.19h-3.94c.13-2.13.19-4.25.19-6.38V741.64c0-2-.06-3.81-.19-5.44h16.13C1357.94,732.7,1357.87,730.2,1357.75,728.7Zm.19,17.63v-6.75h-12.19v6.75Zm0,10.68V749.7h-12.19V757Zm16.12-10.68v-6.75H1361.5v6.75Zm0,10.68V749.7H1361.5V757Z"/><path class="k" d="M1561.88,686.29h11.06q3,0,6.37-.19v3.38c-2.37-.13-4.5-.19-6.37-.19h-6.38c1.13.5,2.44,1.06,3.94,1.69a5,5,0,0,0-1.78,2.25c-.44,1-.78,1.87-1,2.62h7.5c2.25,0,4.43-.06,6.56-.19V699c-2.13-.12-4.31-.19-6.56-.19h-13.31v5.25H1572q3.93,0,7.5-.19v3.38c-2.38-.12-4.88-.19-7.5-.19h-10.12a60.12,60.12,0,0,0,.37,8.06h-3.94q.2-2.43.19-8.06h-10.12c-2.63,0-4.94.07-6.94.19v-3.38q3,.2,6.94.19h10.12v-5.25h-12.19c-2.75,0-5.25.07-7.5.19v-3.38q3.38.2,7.31.19h5.44q-.75-1.12-2.62-4.12c1-.5,2.06-1.06,3.18-1.69a15.3,15.3,0,0,0,1.32,2.15,26.73,26.73,0,0,1,1.5,2.35,12.65,12.65,0,0,0-2.63,1.31h11.81c.38-1.25.72-2.37,1-3.37s.65-2.07,1-3.19h-17.81q-3.39,0-6.94.19V686.1q3.55.2,6.94.19h9.74q-.93-2.62-1.5-4.5l4.13-.75C1561.25,683.41,1561.62,685.16,1561.88,686.29Zm-7.13-10.5h10.69a43.83,43.83,0,0,0-.19-4.5h3.94a41.13,41.13,0,0,0-.19,4.5h6.38c1.74,0,3.68-.06,5.81-.19V679q-3-.19-6-.19H1569c0,.75.06,2,.19,3.75h-3.75v-3.75h-10.69v4.31H1551c.12-1.62.19-3.06.19-4.31h-5.63c-1.87,0-3.94.06-6.18.19V675.6q3.18.2,6.18.19h5.63a38.24,38.24,0,0,0-.19-4.31h3.94A36,36,0,0,0,1554.75,675.79Z"/><path class="k" d="M1541.06,765.73a28.05,28.05,0,0,0,1.88-6.94,99.63,99.63,0,0,0,.75-10.78q.18-6.93,0-13.31h16.5a23.27,23.27,0,0,0-1.31-5.44,35.43,35.43,0,0,0,4.12-.56q1.3,3.75,1.88,6h6.18q4.7,0,9.19-.19v3.75q-4.32-.18-9.19-.18h-23.44q0,10.68-.37,15.84a53.08,53.08,0,0,1-1.59,9.75A46.27,46.27,0,0,1,1542,773a31.54,31.54,0,0,0-4.12-2.06A18.32,18.32,0,0,0,1541.06,765.73Zm24.94-19v2.81h6.75c2.12,0,4-.06,5.63-.18v3.75c-1.63-.13-3.51-.19-5.63-.19H1566v13.5h8.06q3.75,0,6.94-.19v3.94q-3.37-.2-6.75-.19h-20.06q-3.57,0-7.31.19V766.2q4.11.19,7.31.19h8.06v-13.5h-5.06q-3.37,0-6.38.19v-3.75q3,.18,6.38.18h5.06V746.7c0-2.12-.06-4.25-.19-6.37h4.32A55.47,55.47,0,0,0,1566,746.7Z"/><path d="M1760.19,678.41v7.88h10.69c2.49,0,4.87-.06,7.12-.19v4.13q-3.75-.19-7.5-.19h-10.31V709H1775c1.88,0,4.06-.07,6.56-.19v3.94q-3.55-.19-6.56-.19h-29.62q-3,0-6.76.19v-3.94c2.38.12,4.63.19,6.76.19h10.87V678.6c0-1.87-.06-3.94-.19-6.19h4.32Q1760.19,675.61,1760.19,678.41Z"/><path d="M1737.88,745.2a9.85,9.85,0,0,0,2.06-3q3.38,2.07,9,6a24.07,24.07,0,0,0-2.44,3.19A70.85,70.85,0,0,0,1737.88,745.2Zm8.43,17.25a85.77,85.77,0,0,1-4.5,9.19c-.5-.75-1.69-1.44-3.56-2.06a53.89,53.89,0,0,0,4.31-7.41c1.38-2.81,2.56-5.47,3.56-8a11.45,11.45,0,0,0,3,2.44A37.39,37.39,0,0,0,1746.31,762.45Zm4.88-26.62c-.88,1.12-1.69,2.18-2.44,3.18a60.67,60.67,0,0,0-8.63-6,17.26,17.26,0,0,0,2.07-2.81Q1745.75,732.27,1751.19,735.83Zm28.31,27.56v3.37a32.37,32.37,0,0,0-3.75-.18q-.37,4.3-1.78,5.25a11,11,0,0,1-4.59,1.31q-.57-1.7-1.5-3.75a8,8,0,0,0,3.65-.28c.56-.32.91-1.16,1-2.53h-18q.57-5.82.94-11.44c-1.38,0-2.81.06-4.31.19V752a44.51,44.51,0,0,0,4.5.19c.25-4.63.43-8,.56-10.13q-.95,1.32-3.37,4.5a16.58,16.58,0,0,0-2.82-2.25,28.38,28.38,0,0,0,5.35-7.5,40.41,40.41,0,0,0,3.09-8.06,14.08,14.08,0,0,0,3.94,1.69,20.58,20.58,0,0,0-2.06,3.75h13.5c2.37,0,4.5-.06,6.37-.19v3.38q-2.8-.2-6.56-.19h-14.63c-.87,1.5-1.75,2.94-2.62,4.31h20.44q-.2,4.5-.38,10.69c1.37,0,2.87-.06,4.5-.19v3.38c-1.63-.13-3.19-.19-4.69-.19-.12,1.62-.25,4.44-.37,8.44C1776.81,763.58,1778,763.51,1779.5,763.39Zm-6.19-8.25H1758.5c-.25,3.37-.44,6.19-.56,8.44h15Zm-14.25-10.69q0,2.44-.37,7.69h14.81q0-4.12.19-7.69Zm9.38,16.88a13.8,13.8,0,0,0-2.63,1.68,43.42,43.42,0,0,0-3.19-5.43c.88-.63,1.69-1.19,2.44-1.69A59.36,59.36,0,0,1,1768.44,761.33Zm.18-11.25a13.71,13.71,0,0,0-2.62,1.68,58,58,0,0,0-2.81-5.25l2.25-1.68A44.55,44.55,0,0,1,1768.62,750.08Z"/><path d="M1774.25,826.33c.87-.06,1.19-.72.94-2V802.61h-30.75v27.57h-4.13c.25-3.13.38-6.31.38-9.57V809.18q0-4.5-.38-9.38h16.31l.94-5.25h-7.5c-3.12,0-6.75.13-10.87.38v-3.57c2.87.26,6.06.38,9.56.38h9.19a38.82,38.82,0,0,0,.56-5.63,33,33,0,0,0,4.31.75,23.47,23.47,0,0,0-1.12,4.88h12.56c2.12,0,4.44-.06,6.94-.19v3.19c-2.38-.12-4.69-.19-6.94-.19h-12.94l-.93,5.25h18.93q-.37,4.32-.37,7.69v18.75q-.2,2.63-2.25,3.09c-1.38.31-2.94.66-4.69,1a12.57,12.57,0,0,0-1.88-3.93C1772,826.43,1773.37,826.39,1774.25,826.33Zm-26.06-15.84a47.69,47.69,0,0,0,6.56.37h6.37a18.55,18.55,0,0,0,1.88-3c.5-1,1.19-2.31,2.06-3.93,1.25.62,2.69,1.25,4.32,1.87a4.41,4.41,0,0,0-2.35,2.06,26.15,26.15,0,0,1-2,3h2.25q1.88,0,4.5-.18v3.18c-1.62-.12-3.5-.18-5.62-.18h-4.31v3.75h5.43c2.63,0,4.56-.07,5.81-.19v3.37c-1.25-.12-3.18-.18-5.81-.18h-5.43v3.18c0,1.63.06,3.25.18,4.88h-4.12c.12-1.38.18-3,.18-4.88v-3.18h-5.06q-4.12,0-6.37.18v-3.56a45.31,45.31,0,0,0,6,.38h5.43v-3.75h-3.37q-3.75,0-6.56.18Zm6.19-.19a18.17,18.17,0,0,0-1.69-2.72,21.73,21.73,0,0,0-1.88-2.15,13.2,13.2,0,0,0,2.63-1.88c.75.88,1.4,1.63,2,2.25s1.21,1.44,2,2.44C1756.37,808.87,1755.37,809.55,1754.38,810.3Z"/><path class="l" d="M1758.8,415a15.08,15.08,0,0,1-7.1-2.47,15.26,15.26,0,0,1-5-5.64l-.4-.8h5.23l.45.55a10.8,10.8,0,0,0,4.75,3.22,8.65,8.65,0,0,0,3.29.47,8.34,8.34,0,0,0,3.29-.47,10.63,10.63,0,0,0,5.47-4.13,14.26,14.26,0,0,0,1-1.81,13,13,0,0,0-1.72-.06h-1.71l-1.2-1.33-1.39-1.55-.19-.21-1.71,1.52c-.94.83-1.73,1.51-1.75,1.51s-.88-.68-1.92-1.51l-1.89-1.51-.13.15-1.4,1.51-1.26,1.34-2.4,0-4,0h-1.59l-.09-.4A15.91,15.91,0,0,1,1745,401a14.89,14.89,0,0,1,1.6-7.81,14.61,14.61,0,0,1,2.82-3.86,14.2,14.2,0,0,1,3.24-2.44,15.09,15.09,0,0,1,14.16-.23,15,15,0,0,1,7.79,10.15l.12.53h-2.32l-2.33,0-.21-.63a10.54,10.54,0,0,0-8.06-6.88,12.72,12.72,0,0,0-3.54,0,10.59,10.59,0,0,0-7.11,4.61,10.13,10.13,0,0,0-1.56,4.12c-.18,1.19-.3,1.06.93,1.06h1l2.11-2.73c1.16-1.49,2.14-2.72,2.17-2.72s1,.95,2.07,2.11,2,2.1,2.07,2.1.76-.94,1.63-2.09l1.57-2.09,2.4,2.74,2.4,2.74h3.46c3.3,0,3.46,0,3.49.11a18.89,18.89,0,0,1-.15,2.4,15.15,15.15,0,0,1-2.46,6.34,13.42,13.42,0,0,1-1.85,2.2,14.88,14.88,0,0,1-8.57,4.21A18.92,18.92,0,0,1,1758.8,415Z"/><path class="l" d="M1558.8,415a15.08,15.08,0,0,1-7.1-2.47,15.26,15.26,0,0,1-5-5.64l-.4-.8h5.23l.45.55a10.8,10.8,0,0,0,4.75,3.22,8.65,8.65,0,0,0,3.29.47,8.34,8.34,0,0,0,3.29-.47,10.63,10.63,0,0,0,5.47-4.13,14.26,14.26,0,0,0,1-1.81,13,13,0,0,0-1.72-.06h-1.71l-1.2-1.33-1.39-1.55-.19-.21-1.71,1.52c-.94.83-1.73,1.51-1.75,1.51s-.88-.68-1.92-1.51l-1.89-1.51-.13.15-1.4,1.51-1.26,1.34-2.4,0-4,0h-1.59l-.09-.4A15.91,15.91,0,0,1,1545,401a14.89,14.89,0,0,1,1.6-7.81,14.61,14.61,0,0,1,2.82-3.86,14.2,14.2,0,0,1,3.24-2.44,15.09,15.09,0,0,1,14.16-.23,15,15,0,0,1,7.79,10.15l.12.53h-2.32l-2.33,0-.21-.63a10.54,10.54,0,0,0-8.06-6.88,12.65,12.65,0,0,0-3.53,0,10.58,10.58,0,0,0-7.12,4.61,10.13,10.13,0,0,0-1.56,4.12c-.18,1.19-.3,1.06.93,1.06h1l2.11-2.73c1.16-1.49,2.14-2.72,2.17-2.72s1,.95,2.07,2.11,2,2.1,2.07,2.1.76-.94,1.63-2.09l1.57-2.09,2.4,2.74,2.4,2.74h3.46c3.3,0,3.46,0,3.49.11a18.89,18.89,0,0,1-.15,2.4,15.15,15.15,0,0,1-2.46,6.34,13.42,13.42,0,0,1-1.85,2.2,14.88,14.88,0,0,1-8.57,4.21A18.92,18.92,0,0,1,1558.8,415Z"/><polygon class="m" points="1745 845 1775 845 1775 905 1745 905 1745 845"/><path class="n" d="M1763.29,889.44h-3.75V865.51a18.66,18.66,0,0,1-3.55,2.59,25.39,25.39,0,0,1-4,1.94v-3.63a22.59,22.59,0,0,0,5.51-3.59,14.18,14.18,0,0,0,3.34-4.09h2.41Z"/><polygon class="m" points="1545 785 1575 785 1575 845 1545 845 1545 785"/><path class="o" d="M1563.29,829.44h-3.75V805.51a18.66,18.66,0,0,1-3.55,2.59,25.39,25.39,0,0,1-4,1.94v-3.63a22.59,22.59,0,0,0,5.51-3.59,14.18,14.18,0,0,0,3.34-4.09h2.41Z"/><polygon class="p" points="1745 915 1775 915 1775 975 1745 975 1745 915"/><path d="M1750.16,951l3.69-.49A8.12,8.12,0,0,0,1756,955a5.36,5.36,0,0,0,3.72,1.38,6,6,0,0,0,4.41-1.8,6.14,6.14,0,0,0,1.79-4.48,5.65,5.65,0,0,0-1.66-4.19,5.76,5.76,0,0,0-4.23-1.65,10.65,10.65,0,0,0-2.6.41l.41-3.24a5,5,0,0,0,.6,0,7.62,7.62,0,0,0,4.24-1.23,4.2,4.2,0,0,0,1.89-3.79,4.46,4.46,0,0,0-1.38-3.36,4.89,4.89,0,0,0-3.55-1.34,5.05,5.05,0,0,0-3.58,1.35,6.77,6.77,0,0,0-1.85,4.07l-3.69-.66a9.47,9.47,0,0,1,3.07-5.75,8.91,8.91,0,0,1,6-2,9.88,9.88,0,0,1,4.53,1.06,7.72,7.72,0,0,1,3.17,2.88,7.43,7.43,0,0,1,1.1,3.88,6.34,6.34,0,0,1-1,3.55,7.23,7.23,0,0,1-3.09,2.54,6.92,6.92,0,0,1,4.14,2.56,7.74,7.74,0,0,1,1.47,4.84,8.86,8.86,0,0,1-2.87,6.68,10.07,10.07,0,0,1-7.26,2.74,9.44,9.44,0,0,1-6.57-2.36,9.1,9.1,0,0,1-3-6.11Z"/><polygon class="q" points="1545 855 1575 855 1575 915 1545 915 1545 855"/><path class="r" d="M1549.85,890.91l4-.33a7.09,7.09,0,0,0,2,4.33,5.53,5.53,0,0,0,3.86,1.45,6,6,0,0,0,4.58-2,7.71,7.71,0,0,0,1.89-5.43,7,7,0,0,0-1.81-5.08,6.29,6.29,0,0,0-4.73-1.86,6.58,6.58,0,0,0-3.28.83,6.38,6.38,0,0,0-2.29,2.14l-3.53-.46,3-15.71h15.22v3.59H1556.5l-1.66,8.22a10,10,0,0,1,5.79-1.93,9.17,9.17,0,0,1,6.76,2.78,9.72,9.72,0,0,1,2.76,7.14,11.16,11.16,0,0,1-2.43,7.18,9.69,9.69,0,0,1-8,3.72,9.89,9.89,0,0,1-6.82-2.34,9.14,9.14,0,0,1-3-6.2Z"/><path class="s" d="M311.25,125.31a20.94,20.94,0,0,0-4.37,3.44h9.68V110.62H305.94q-4.38,0-12.19.32V105q7.81.31,11.87.31h10.94V95.62q-10.31,0-16.25.32v-5a112.94,112.94,0,0,1-12.19,7.81,27.7,27.7,0,0,0-4.68-5.31,54.3,54.3,0,0,0,12.18-6.56,76.44,76.44,0,0,0,12.19-10.79A62.31,62.31,0,0,0,317.5,62.5c.42.42,2.6,1.56,6.56,3.44l-1.87,1.87q3.44,3.75,8.43,8.44a53.31,53.31,0,0,0,11.88,8.28,77.32,77.32,0,0,0,14.38,5.78,20,20,0,0,0-4.07,5.94A95.4,95.4,0,0,1,340,90.62v5.32q-6.25-.31-10-.32h-7.5v9.69h10.94q5.31,0,13.12-.31v5.94q-7.5-.31-13.12-.32H322.5v18.13h5.94q7.19-12.5,7.81-16.87a51.22,51.22,0,0,0,6.87,3.74q-2.17,2.82-8.43,13.13,9.68,0,18.75-.31v5.94q-9.07-.31-14.69-.32H301.56q-6.56,0-12.81.32v-5.94q6.56.3,12.81.31h3.75a67.48,67.48,0,0,0-7.81-12.5,51.63,51.63,0,0,0,5-3.75Q307.5,119.37,311.25,125.31Zm-1.25-35h18.75c3.13-.2,6.46-.31,10-.31A98.66,98.66,0,0,1,328,81.09a87.58,87.58,0,0,1-8.91-9.53,81.65,81.65,0,0,1-8.28,9.53q-4.84,4.86-9.53,8.91C304.38,90.21,307.29,90.31,310,90.31Z"/><path class="s" d="M455,94.06v28.75h21.88V75.94q0-5.62-.32-11.25h6.88q-.31,4.38-.32,11.25v46.87H505V93.44c0-4.58-.11-8.44-.31-11.56h7.19q-.31,3.75-.32,11.56v25.31q0,7.5.32,15.94H505v-6.57H448.12q.31-6.87.32-13.43V94.38q0-7.2-.32-12.82h7.19Q455,89.06,455,94.06Z"/><path class="s" d="M618.28,75.16q-3,5.15-8,12.65c5-.2,8.44-.31,10.31-.31a66.21,66.21,0,0,0,5-10.31,26.52,26.52,0,0,0,6.88,3.43,47.23,47.23,0,0,0-6.41,8.44q-3.27,5.32-11.4,18.13,8.43-.63,15-1.25a18.83,18.83,0,0,0-.94,5.31q-2.19,0-9.69.78a81.79,81.79,0,0,0-12.18,2A21.07,21.07,0,0,0,605,107.5a12.77,12.77,0,0,0,6.88-5,82.76,82.76,0,0,0,6.56-10.31q-10.32.63-13.13,2.5a31.86,31.86,0,0,0-2.81-6.88q4.07-2.81,7.81-9.22a94,94,0,0,0,6.88-14.84,25.34,25.34,0,0,0,7.19,3.44A32.18,32.18,0,0,0,618.28,75.16Zm13.91,47.34q-7.82,1.56-14.07,3.12t-11.56,3.44a21.09,21.09,0,0,0-3.44-6.87q8.76-.94,13.44-1.72t15.63-3.28A22,22,0,0,0,632.19,122.5Zm10.93-48.12a63.65,63.65,0,0,0-.93-10.32c2.7.21,5.52.52,8.43.94a17.42,17.42,0,0,0-1.24,6.09,112.41,112.41,0,0,0,0,12L660,81.25q5.31-1.25,10.62-2.81l1.26,5.94q-5.32.62-10.94,1.56l-11.25,2.18a53.59,53.59,0,0,0,.62,8.76l12.19-2.19a98.6,98.6,0,0,0,11.88-3.13l.93,5.94c-3.75.62-7.71,1.36-11.87,2.19l-12.19,2.19a35.18,35.18,0,0,0,3.13,11.56,49.44,49.44,0,0,0,5.46-5,42.12,42.12,0,0,0,4.85-6.25,45.59,45.59,0,0,0,7.19,5,21.86,21.86,0,0,0-6.41,4.22q-2.34,2.34-7.66,7.34,3.75,6.25,6.72,8t4.22.16c.83-1,1.56-3.23,2.19-6.57a21.65,21.65,0,0,0,6.56,3.44q-5.31,13.75-11.56,11.09T652.81,122.5q-4.38,3.44-8.59,6.41A82.7,82.7,0,0,1,633.75,135a16.91,16.91,0,0,0-4.69-5.62,64.42,64.42,0,0,0,10.63-4.69,73.11,73.11,0,0,0,10-7.19,55.73,55.73,0,0,1-4.07-14.69,101.22,101.22,0,0,0-13.12,2.81l-.94-5.93q3.75,0,12.82-1.88a69.23,69.23,0,0,1-.63-8.43q-8.44,1.86-11.56,2.81l-1.25-5.94q3.12,0,12.18-1.87Zm11.57-4.69,5-2.5q1.24,1.56,6.25,7.5a18.72,18.72,0,0,0-5.32,3.12A93.22,93.22,0,0,0,654.69,69.69Z"/><path class="s" d="M803.44,67.81q10.93,17.5,33.12,22.5a18.59,18.59,0,0,0-3.75,7.19,63.17,63.17,0,0,1-10.62-5.31v5c-2.3-.21-5.94-.31-10.94-.31h-7.5v12.5h11.87q6.57,0,10.63-.32v5.63q-4.07-.31-10.63-.31H803.75v14.06h12.19a150.54,150.54,0,0,0,15.31-.63v6.57a92.13,92.13,0,0,0-14.69-.94H782.19q-9.37,0-14.07.31v-5.63q4.7.31,14.07.32H797.5V114.38h-8.75q-10.62,0-14.06.31v-5.63q3.43.31,13.75.32h9.06V96.88h-6.25q-9.69,0-12.5.31v-5a97,97,0,0,1-10.63,6.56,29.4,29.4,0,0,0-4.37-6.56q7.5-1.87,17.5-9.38a53.23,53.23,0,0,0,15.94-19.69q3.75,1.58,7.81,3.13ZM791.56,91.56h18.75q6.26,0,9.69-.31a44.26,44.26,0,0,1-20-20,68.35,68.35,0,0,1-19.38,20Q784.37,91.57,791.56,91.56Z"/><path class="s" d="M986.88,99.69q0,18.75.31,34.06H980v-7.81H942.5v9.37h-6.88q.32-14.37.32-33.75t-.32-35.94h51.57Q986.88,80.94,986.88,99.69ZM980,93.12V71.25H942.5V93.12Zm0,27.5V98.44H942.5v22.18Z"/><path class="s" d="M1096.88,120.62v-25c-3.76,0-7.4.11-10.94.32V90c4,.21,7.81.31,11.56.31h5.31q-.32,5.94-.31,9.38v19.69q6.57,8.12,24.84,8.28t28.28-1.41a26.19,26.19,0,0,0-2.81,7.5H1132.5a98.64,98.64,0,0,1-13.59-.78,44.23,44.23,0,0,1-9.22-2.19,23.09,23.09,0,0,1-6.88-4.06q-3.12-2.66-7.34,1.09a75.51,75.51,0,0,0-6.41,6.25c-1.46-1.67-3.12-3.64-5-5.94Q1093.75,121.88,1096.88,120.62Zm1.56-39.68a61.73,61.73,0,0,0-9.38-11.88l4.38-3.75q8.11,8.76,10,11.88Zm22.5,36.4c-4,.53-6.67,1.2-8.13,2l-3.12-6.57q3.12-1.25,6.56-6.87a46.13,46.13,0,0,0,5.31-14.38q-10.62,0-16.25.32V85.94q5.94.32,24.07.31t23.43-.31v5.94q-5.31-.31-24.37-.32a59,59,0,0,1-3.6,9.06,107.53,107.53,0,0,1-6.4,11.57q11.55-.94,22.18-1.88a59.73,59.73,0,0,0-6.24-9.06,18.07,18.07,0,0,0,4.68-3.44,192,192,0,0,1,12.82,18.75c-1.88,1-3.76,2.19-5.63,3.44-1-1.88-2.08-3.64-3.13-5.31Q1126.88,116.57,1120.94,117.34Zm26.56-42.65q-5.94-.31-17.81-.31-11.57,0-18.13.31V68.75q5.63.31,17.82.31t18.12-.31Z"/><path class="s" d="M1264.53,89.69q-1.41,2.5-3.91,6.25v28.12q0,4.06.32,12.5h-6.56q.3-9.37.31-14.06v-20a50,50,0,0,1-7.5,9.38,66.5,66.5,0,0,0-4.07-5.32,75.4,75.4,0,0,0,11.26-13.12q4-6.25,7.18-11.88c2.08,1.25,4.48,2.61,7.19,4.06A10.69,10.69,0,0,0,1264.53,89.69Zm-5.15-16.41a103.42,103.42,0,0,1-11.26,14.22,42.28,42.28,0,0,0-4.06-4.69A80.44,80.44,0,0,0,1253.12,72a58.28,58.28,0,0,0,5.94-10.15,80.8,80.8,0,0,1,6.88,4.68Q1263.44,66.88,1259.38,73.28Zm46.87,16.1c4,0,7.6-.11,10.94-.32v6.25c-3.34-.2-6.88-.31-10.63-.31h-4.37v34.06q.3,3.75-2.35,5.16t-10.46,2.34a17.42,17.42,0,0,0-3.44-7.5,46.34,46.34,0,0,0,7.5.47c1.45-.11,2.29-1.2,2.5-3.28V95h-12.5c-4,0-7.71.11-11.25.31V89.06q5.63.31,11.25.32Zm-5.31-21.26c3.54,0,7.18-.1,10.94-.31v5.94c-3.76-.21-7.61-.31-11.57-.31h-11.56q-6.87,0-11.87.31V67.81q5,.31,11.87.31Z"/><path class="s" d="M1432.81,84.38V112.5q0,5.31.31,12.81h-5.62v-4.06h-16.56v5.94H1405a90.71,90.71,0,0,0,.62-11.25V84.38a116.44,116.44,0,0,0-.62-12.82h28.12C1432.92,76.36,1432.81,80.62,1432.81,84.38Zm-16.25,9.06V76.25h-5.62V93.44Zm0,22.81V98.44h-5.62v17.81Zm10.94-22.81V76.25h-5.62V93.44Zm0,22.81V98.44h-5.62v17.81Zm21.88-44.69h20.93a65.63,65.63,0,0,1-5.15,11.88,52.17,52.17,0,0,1-7.35,10.31,23.69,23.69,0,0,0,8.6,4.84,53.34,53.34,0,0,0,9.84,2.35,23.72,23.72,0,0,0-3.44,6.25,51.29,51.29,0,0,1-9.69-3.28,34,34,0,0,1-9.37-6.1q-2.51,1.88-6.56,4.69a65.1,65.1,0,0,1-10.31,5.62,19.85,19.85,0,0,0-3.44-5.62,71.82,71.82,0,0,0,8.28-3.28,45.43,45.43,0,0,0,8.59-5.78,46.06,46.06,0,0,1-3.43-5.32q-1.58-2.81-2.82-5.31a98.81,98.81,0,0,1-5.31,8.44c-.83-1.25-2.61-2.5-5.31-3.75a44.6,44.6,0,0,0,7.65-11.72,58.7,58.7,0,0,0,4.53-13.28,63.46,63.46,0,0,0,7.5,2.81A20.47,20.47,0,0,0,1449.38,71.56ZM1468.44,115v12.19q0,4,.31,8.75h-5.94V130h-16.25v6.25h-5.94q.32-5.31.32-9.69V115.31q0-4.68-.32-8.75h28.13C1468.54,109.06,1468.44,111.88,1468.44,115Zm-5.63,9.69V111.56h-16.25v13.13Zm-.31-48.44h-15.31a39.36,39.36,0,0,0,7.19,13.44A49,49,0,0,0,1462.5,76.25Z"/><path class="s" d="M1632.19,83.12v33.44q0,9.69.31,19.06h-6.25v-4.06h-52.19v4.69h-6.25q.32-9.69.31-20V83.12q0-9.06-.31-17.18h64.69Q1632.19,73.76,1632.19,83.12Zm-5.94,43.13V70.94h-52.19v55.31Zm-29.37-47.19h20.93a44.37,44.37,0,0,1-4.06,6.88,65.16,65.16,0,0,1-8.75,9.68,53.49,53.49,0,0,0,18.44,5.63,35.29,35.29,0,0,0-3.75,5.94,76.34,76.34,0,0,1-19.38-8.44,67.73,67.73,0,0,1-19.37,8.75,13.68,13.68,0,0,0-3.44-5.31,51.24,51.24,0,0,0,18.44-6.57,41.78,41.78,0,0,1-6.25-6.87q-2.82,3.12-5.94,6.25a15.39,15.39,0,0,0-4.69-3.75,47.83,47.83,0,0,0,9.06-9.84,54.76,54.76,0,0,0,5.32-9.22,52,52,0,0,0,6.87,2.81A32.58,32.58,0,0,0,1596.88,79.06Zm14.37,40q-1.56,2.5-3.13,5.32-12.81-5.32-19.68-6.88a40.69,40.69,0,0,0,2.18-5.31Q1604.38,116.26,1611.25,119.06ZM1600.94,92.5a33.46,33.46,0,0,0,7.5-8.44h-15l-.63.94A41.61,41.61,0,0,0,1600.94,92.5Zm10,15.62a35.62,35.62,0,0,0-2.82,5.63q-10.62-5-14.37-6.25a28.24,28.24,0,0,0,2.81-5Q1607.18,106.88,1610.94,108.12Z"/><path class="s" d="M741.19,225.44q0,5.43-2.63,8.15a8.49,8.49,0,0,1-6.37,2.72,7.9,7.9,0,0,1-3.57-.75,6.87,6.87,0,0,1-2.62-2.44v2.82h-3.75V203.88H726v13.87a7.67,7.67,0,0,1,2.62-2.53,7.19,7.19,0,0,1,3.57-.84,8.37,8.37,0,0,1,6.37,2.81Q741.19,220,741.19,225.44Zm-4.13,0a9.94,9.94,0,0,0-1.4-5.63,5,5,0,0,0-8.07,0,9,9,0,0,0-1.59,5.63,8.59,8.59,0,0,0,1.59,5.53,4.81,4.81,0,0,0,3.85,2,4.86,4.86,0,0,0,4.22-2A9.46,9.46,0,0,0,737.06,225.44Z"/><path class="s" d="M765.75,214.94l-8.63,22.68a8.06,8.06,0,0,1-2.24,3.94,5.51,5.51,0,0,1-3.76,1.32,16.9,16.9,0,0,1-1.78-.1,4.64,4.64,0,0,1-1.59-.47v-3.75a7,7,0,0,0,1.5.56,5.29,5.29,0,0,0,1.31.19,3.33,3.33,0,0,0,2.06-.47,4.93,4.93,0,0,0,1.13-2.15l-8.25-21.75h4.12l6,16.5h.19l5.81-16.5Z"/><path class="s" d="M781.69,218.69h-4.31v-4.13h4.31Zm0,17.25h-4.31v-4.13h4.31Z"/><path class="s" d="M813.19,225.44q0,5.43-2.63,8.15a8.49,8.49,0,0,1-6.37,2.72,7.9,7.9,0,0,1-3.57-.75,6.87,6.87,0,0,1-2.62-2.44v2.82h-3.75V203.88H798v13.87a7.67,7.67,0,0,1,2.62-2.53,7.19,7.19,0,0,1,3.57-.84,8.37,8.37,0,0,1,6.37,2.81Q813.19,220,813.19,225.44Zm-4.13,0a9.94,9.94,0,0,0-1.4-5.63,5,5,0,0,0-8.07,0,9,9,0,0,0-1.59,5.63,8.59,8.59,0,0,0,1.59,5.53,4.81,4.81,0,0,0,3.85,2,4.86,4.86,0,0,0,4.22-2A9.46,9.46,0,0,0,809.06,225.44Z"/><path class="s" d="M829.5,208.94h-3.75v-4.88h3.75Zm0,27h-3.75v-21h3.75Z"/><path class="s" d="M853.69,235.94h-3.75V203.88h3.75Z"/><path class="s" d="M877.5,208.94h-3.75v-4.88h3.75Zm0,27h-3.75v-21h3.75Z"/><path class="s" d="M909.19,225.44q0,5.43-2.63,8.15a8.49,8.49,0,0,1-6.37,2.72,7.9,7.9,0,0,1-3.57-.75,6.87,6.87,0,0,1-2.62-2.44v2.82h-3.75V203.88H894v13.87a7.67,7.67,0,0,1,2.62-2.53,7.19,7.19,0,0,1,3.57-.84,8.37,8.37,0,0,1,6.37,2.81Q909.19,220,909.19,225.44Zm-4.13,0a9.94,9.94,0,0,0-1.4-5.63,5,5,0,0,0-8.07,0,9,9,0,0,0-1.59,5.63,8.59,8.59,0,0,0,1.59,5.53,4.81,4.81,0,0,0,3.85,2,4.86,4.86,0,0,0,4.22-2A9.46,9.46,0,0,0,905.06,225.44Z"/><path class="s" d="M925.5,208.94h-3.75v-4.88h3.75Zm0,27h-3.75v-21h3.75Z"/><path class="s" d="M949.69,235.94h-3.75V203.88h3.75Z"/><path class="s" d="M973.5,208.94h-3.75v-4.88h3.75Zm0,27h-3.75v-21h3.75Z"/><path class="s" d="M1006.5,217c0,4.63-.66,7.81-2,9.56s-2.72,2.63-4.22,2.63a2.74,2.74,0,0,1-1.69-.57,3.31,3.31,0,0,1-1.12-1.68,7.49,7.49,0,0,1-1.88,1.68,3.57,3.57,0,0,1-1.87.57,4,4,0,0,1-3.19-1.6,7.07,7.07,0,0,1-1.31-4.59,15.76,15.76,0,0,1,2.63-9c1.74-2.62,3.43-3.94,5.06-3.94a3.3,3.3,0,0,1,1.31.19,3.2,3.2,0,0,1,.94,1.31l.93-1.5h2.07l-2.63,14.25a2.39,2.39,0,0,0,.19,1.69,1.25,1.25,0,0,0,1.13.56c1.37,0,2.34-.84,2.9-2.53a23.22,23.22,0,0,0,.84-7q0-5.62-2.15-8.81a6.61,6.61,0,0,0-5.72-3.19q-3.94,0-6.94,3.84t-3,11.72q0,7.88,2.81,11.06a8.71,8.71,0,0,0,6.76,3.19,7.16,7.16,0,0,0,3.18-.84,6.06,6.06,0,0,0,2.63-2.53l.93,1.31a9.29,9.29,0,0,1-2.9,2.53,7.52,7.52,0,0,1-3.84,1,10.63,10.63,0,0,1-8.07-3.65q-3.37-3.66-3.37-12.1t3.56-12.75q3.56-4.31,8.25-4.31a8.28,8.28,0,0,1,7.13,3.75A16.72,16.72,0,0,1,1006.5,217Zm-7.88-2.44a2.65,2.65,0,0,0-.18-1.78,1.39,1.39,0,0,0-1.32-.66q-1.5,0-3.18,3.47a16.27,16.27,0,0,0-1.69,7.22,5.29,5.29,0,0,0,.66,3,1.88,1.88,0,0,0,1.59.94,1.84,1.84,0,0,0,1.69-.94,6,6,0,0,0,.75-2.06Z"/><path class="s" d="M1046.25,237.53c.87-.06,1.19-.72.94-2V213.81h-30.75v27.57h-4.13q.38-4.69.38-9.57V220.38q0-4.5-.38-9.38h16.31l.94-5.25h-7.5c-3.12,0-6.75.13-10.87.37v-3.56q4.3.38,9.56.38h9.19a39,39,0,0,0,.56-5.63,33,33,0,0,0,4.31.75,23.47,23.47,0,0,0-1.12,4.88h12.56c2.12,0,4.44-.06,6.94-.19v3.19q-3.57-.19-6.94-.19h-12.94l-.93,5.25h18.93q-.37,4.32-.37,7.69v18.75q-.2,2.63-2.25,3.09c-1.38.31-2.94.66-4.69,1a12.72,12.72,0,0,0-1.88-3.94C1044,237.62,1045.37,237.59,1046.25,237.53Zm-26.06-15.84a47.69,47.69,0,0,0,6.56.37h6.37a19,19,0,0,0,1.88-3c.5-1,1.19-2.31,2.06-3.94a45.9,45.9,0,0,0,4.32,1.88,4.41,4.41,0,0,0-2.35,2.06,27.05,27.05,0,0,1-2,3h2.25q1.88,0,4.5-.18v3.18c-1.62-.12-3.5-.18-5.62-.18h-4.31v3.74h5.43c2.63,0,4.56-.06,5.81-.18v3.37c-1.25-.12-3.18-.19-5.81-.19h-5.43v3.19c0,1.63.06,3.25.18,4.88h-4.12c.12-1.38.18-3,.18-4.88v-3.19h-5.06c-2.75,0-4.87.07-6.37.19v-3.56a45.37,45.37,0,0,0,6,.37h5.43v-3.74h-3.37q-3.75,0-6.56.18Zm6.19-.19a18.17,18.17,0,0,0-1.69-2.72,23.12,23.12,0,0,0-1.88-2.16,12.7,12.7,0,0,0,2.63-1.87c.75.88,1.4,1.63,2,2.25s1.21,1.44,2,2.44C1028.37,220.06,1027.37,220.75,1026.38,221.5Z"/><path class="s" d="M1072.12,202.38a27.84,27.84,0,0,1-1.87,2.81v12.19q0,3,.19,6.37h-4.13c.13-2.37.19-4.5.19-6.37v-8.07a15.72,15.72,0,0,1-2.25,2.91c-1,1.06-2,2.16-3,3.28a31.34,31.34,0,0,0-3.19-2.81,28.32,28.32,0,0,0,4.78-4.31c1.44-1.63,2.6-3,3.47-4.22a21.23,21.23,0,0,0,2.16-3.57,27.33,27.33,0,0,0,1.22-2.9,37.61,37.61,0,0,0,4.5,2.25A9.19,9.19,0,0,0,1072.12,202.38Zm5.44,25.31q0-3.19-.18-5.25h3.93c-.12,1.12-.19,2.87-.19,5.25h13.5q2.82,0,6.57-.19v3.75c-2.38-.12-4.5-.19-6.38-.19h-13.69c0,5.13.07,8.5.19,10.13h-3.93q.18-2.62.18-10.13h-13.68c-1.63,0-3.44.07-5.44.19V227.5c2,.13,3.87.19,5.62.19Zm7.69-24.19V208a59.66,59.66,0,0,0,5.34-2.81,32.92,32.92,0,0,0,5.53-4.31,37.54,37.54,0,0,0,3.19,3.56,58.09,58.09,0,0,0-6.56,3.18c-2.75,1.5-5.25,2.82-7.5,3.94v4.88c0,1.62.87,2.44,2.63,2.44h6.56c1.62,0,2.56-.38,2.81-1.13A24,24,0,0,0,1098,214a18.17,18.17,0,0,0,4.31,1.88,12.91,12.91,0,0,1-2.06,4.87,4,4,0,0,1-3.19,1.31h-11.44c-2.62,0-4-1.31-4.12-3.94v-5.06c-2.62,1.25-4.63,2.13-6,2.63a8.22,8.22,0,0,0-2.06-3.19,39.43,39.43,0,0,0,8.06-2.81v-5.81q0-3.57-.19-5.82h4.31A33.82,33.82,0,0,0,1085.25,203.5Z"/><path class="s" d="M1112.06,214.94c-.87,1.87-1.94,3.94-3.18,6.18-.76-.74-1.76-1.62-3-2.62q2.25-1.87,5-8.44a60.88,60.88,0,0,0,3.66-11.44,14.42,14.42,0,0,0,4.31,1.69,6.68,6.68,0,0,0-1.59,2.72q-.84,2.16-2,5.72v24.56q0,4.88.19,7.88h-3.56q.18-3.37.18-8.07Zm20.44-14.06q-.2,2.06-.19,6.18t.19,6.75h-9.75v5.07h3.94c1.12,0,2.62-.07,4.5-.19v3.37q-2.82-.18-4.5-.18h-3.94v5.62h3.56c1.88,0,3.57-.06,5.07-.19v3.38c-1.38-.13-3.07-.19-5.07-.19h-3.56v10.69h-3.19c.13-2,.19-4.07.19-6.19V206.5a56.08,56.08,0,0,0-.19-5.62Zm-3.38,9.93v-6.93h-6.37v6.93Zm18.38,7.13a39.86,39.86,0,0,1-4.88,15.56,24,24,0,0,0,7.5,5.44,14.78,14.78,0,0,0-2.62,3,38.41,38.41,0,0,1-6.94-6,32.28,32.28,0,0,1-8.81,6,11.13,11.13,0,0,0-2.44-3,21,21,0,0,0,9.38-5.63,38.14,38.14,0,0,1-4.31-12.37l-.94.18v-3.37c1.5.13,3.68.19,6.56.19Zm-.19-17.44c-.12,1.38-.22,3.56-.28,6.56a39.87,39.87,0,0,0,.28,6.75h-5.43c-2.63,0-5,.07-7.13.19v-3.19q3,.19,6.94.19h2.06v-7.69h-1.87c-2.88,0-5.13.07-6.76.19v-3.19c1.75.13,3.76.19,6,.19Zm-6.56,30a23.28,23.28,0,0,0,3-9.56h-6.37Q1138.86,227.87,1140.75,230.5Z"/><path class="s" d="M1166.06,229.19a31.72,31.72,0,0,0,5.72-10.78,43.51,43.51,0,0,0,1.78-10.32,92.12,92.12,0,0,0-.18-10c1.37.13,2.93.25,4.68.38a33.91,33.91,0,0,0-.56,6.18c0,2.13.12,4.57.38,7.32s2,6.91,5.34,12.47a30.39,30.39,0,0,0,14.53,12.47,16.08,16.08,0,0,0-3,3.74q-13.12-6.36-18.75-23.06-3.75,14.82-18.19,23.63a18.73,18.73,0,0,0-3.19-3.19A32,32,0,0,0,1166.06,229.19Z"/><rect class="a" x="499.5" y="885" width="50" height="30" transform="translate(1049 1800) rotate(180)"/><rect class="t" x="499.5" y="935" width="50" height="30" transform="translate(1049 1900) rotate(180)"/><rect class="u" x="499.5" y="985" width="50" height="30" transform="translate(1049 2000) rotate(180)"/></svg>